<?xml version="1.0" encoding="utf-8" standalone="no"?>
<!DOCTYPE svg PUBLIC "-//W3C//DTD SVG 1.1//EN"
  "http://www.w3.org/Graphics/SVG/1.1/DTD/svg11.dtd">
<svg xmlns:xlink="http://www.w3.org/1999/xlink" width="432pt" height="288pt" viewBox="0 0 432 288" xmlns="http://www.w3.org/2000/svg" version="1.1">
 <metadata>
  <rdf:RDF xmlns:dc="http://purl.org/dc/elements/1.1/" xmlns:cc="http://creativecommons.org/ns#" xmlns:rdf="http://www.w3.org/1999/02/22-rdf-syntax-ns#">
   <cc:Work>
    <dc:type rdf:resource="http://purl.org/dc/dcmitype/StillImage"/>
    <dc:date>2025-06-25T11:22:36.579720</dc:date>
    <dc:format>image/svg+xml</dc:format>
    <dc:creator>
     <cc:Agent>
      <dc:title>Matplotlib v3.7.5, https://matplotlib.org/</dc:title>
     </cc:Agent>
    </dc:creator>
   </cc:Work>
  </rdf:RDF>
 </metadata>
 <defs>
  <style type="text/css">*{stroke-linejoin: round; stroke-linecap: butt}</style>
 </defs>
 <g id="figure_1">
  <g id="patch_1">
   <path d="M 0 288 
L 432 288 
L 432 0 
L 0 0 
z
" style="fill: #ffffff"/>
  </g>
  <g id="axes_1">
   <g id="patch_2">
    <path d="M 54.13524 244.35226 
L 428.99976 244.35226 
L 428.99976 3.00024 
L 54.13524 3.00024 
z
" style="fill: #ffffff"/>
   </g>
   <g id="matplotlib.axis_1">
    <g id="xtick_1">
     <g id="line2d_1">
      <path d="M 70.833409 244.35226 
L 70.833409 3.00024 
" clip-path="url(#pdab66dafb4)" style="fill: none; stroke: #b0b0b0; stroke-width: 0.8; stroke-linecap: square"/>
     </g>
     <g id="line2d_2">
      <defs>
       <path id="m4fff9da071" d="M 0 0 
L 0 3.5 
" style="stroke: #000000; stroke-width: 0.8"/>
      </defs>
      <g>
       <use xlink:href="#m4fff9da071" x="70.833409" y="244.35226" style="stroke: #000000; stroke-width: 0.8"/>
      </g>
     </g>
     <g id="text_1">
      <!-- 0 -->
      <g transform="translate(66.384659 262.80476) scale(0.16 -0.16)">
       <defs>
        <path id="ArialMT-30" d="M 266 2259 
Q 266 3072 433 3567 
Q 600 4063 929 4331 
Q 1259 4600 1759 4600 
Q 2128 4600 2406 4451 
Q 2684 4303 2865 4023 
Q 3047 3744 3150 3342 
Q 3253 2941 3253 2259 
Q 3253 1453 3087 958 
Q 2922 463 2592 192 
Q 2263 -78 1759 -78 
Q 1097 -78 719 397 
Q 266 969 266 2259 
z
M 844 2259 
Q 844 1131 1108 757 
Q 1372 384 1759 384 
Q 2147 384 2411 759 
Q 2675 1134 2675 2259 
Q 2675 3391 2411 3762 
Q 2147 4134 1753 4134 
Q 1366 4134 1134 3806 
Q 844 3388 844 2259 
z
" transform="scale(0.015625)"/>
       </defs>
       <use xlink:href="#ArialMT-30"/>
      </g>
     </g>
    </g>
    <g id="xtick_2">
     <g id="line2d_3">
      <path d="M 139.05882 244.35226 
L 139.05882 3.00024 
" clip-path="url(#pdab66dafb4)" style="fill: none; stroke: #b0b0b0; stroke-width: 0.8; stroke-linecap: square"/>
     </g>
     <g id="line2d_4">
      <g>
       <use xlink:href="#m4fff9da071" x="139.05882" y="244.35226" style="stroke: #000000; stroke-width: 0.8"/>
      </g>
     </g>
     <g id="text_2">
      <!-- 2 -->
      <g transform="translate(134.61007 262.80476) scale(0.16 -0.16)">
       <defs>
        <path id="ArialMT-32" d="M 3222 541 
L 3222 0 
L 194 0 
Q 188 203 259 391 
Q 375 700 629 1000 
Q 884 1300 1366 1694 
Q 2113 2306 2375 2664 
Q 2638 3022 2638 3341 
Q 2638 3675 2398 3904 
Q 2159 4134 1775 4134 
Q 1369 4134 1125 3890 
Q 881 3647 878 3216 
L 300 3275 
Q 359 3922 746 4261 
Q 1134 4600 1788 4600 
Q 2447 4600 2831 4234 
Q 3216 3869 3216 3328 
Q 3216 3053 3103 2787 
Q 2991 2522 2730 2228 
Q 2469 1934 1863 1422 
Q 1356 997 1212 845 
Q 1069 694 975 541 
L 3222 541 
z
" transform="scale(0.015625)"/>
       </defs>
       <use xlink:href="#ArialMT-32"/>
      </g>
     </g>
    </g>
    <g id="xtick_3">
     <g id="line2d_5">
      <path d="M 207.284231 244.35226 
L 207.284231 3.00024 
" clip-path="url(#pdab66dafb4)" style="fill: none; stroke: #b0b0b0; stroke-width: 0.8; stroke-linecap: square"/>
     </g>
     <g id="line2d_6">
      <g>
       <use xlink:href="#m4fff9da071" x="207.284231" y="244.35226" style="stroke: #000000; stroke-width: 0.8"/>
      </g>
     </g>
     <g id="text_3">
      <!-- 4 -->
      <g transform="translate(202.835481 262.80476) scale(0.16 -0.16)">
       <defs>
        <path id="ArialMT-34" d="M 2069 0 
L 2069 1097 
L 81 1097 
L 81 1613 
L 2172 4581 
L 2631 4581 
L 2631 1613 
L 3250 1613 
L 3250 1097 
L 2631 1097 
L 2631 0 
L 2069 0 
z
M 2069 1613 
L 2069 3678 
L 634 1613 
L 2069 1613 
z
" transform="scale(0.015625)"/>
       </defs>
       <use xlink:href="#ArialMT-34"/>
      </g>
     </g>
    </g>
    <g id="xtick_4">
     <g id="line2d_7">
      <path d="M 275.509642 244.35226 
L 275.509642 3.00024 
" clip-path="url(#pdab66dafb4)" style="fill: none; stroke: #b0b0b0; stroke-width: 0.8; stroke-linecap: square"/>
     </g>
     <g id="line2d_8">
      <g>
       <use xlink:href="#m4fff9da071" x="275.509642" y="244.35226" style="stroke: #000000; stroke-width: 0.8"/>
      </g>
     </g>
     <g id="text_4">
      <!-- 6 -->
      <g transform="translate(271.060892 262.80476) scale(0.16 -0.16)">
       <defs>
        <path id="ArialMT-36" d="M 3184 3459 
L 2625 3416 
Q 2550 3747 2413 3897 
Q 2184 4138 1850 4138 
Q 1581 4138 1378 3988 
Q 1113 3794 959 3422 
Q 806 3050 800 2363 
Q 1003 2672 1297 2822 
Q 1591 2972 1913 2972 
Q 2475 2972 2870 2558 
Q 3266 2144 3266 1488 
Q 3266 1056 3080 686 
Q 2894 316 2569 119 
Q 2244 -78 1831 -78 
Q 1128 -78 684 439 
Q 241 956 241 2144 
Q 241 3472 731 4075 
Q 1159 4600 1884 4600 
Q 2425 4600 2770 4297 
Q 3116 3994 3184 3459 
z
M 888 1484 
Q 888 1194 1011 928 
Q 1134 663 1356 523 
Q 1578 384 1822 384 
Q 2178 384 2434 671 
Q 2691 959 2691 1453 
Q 2691 1928 2437 2201 
Q 2184 2475 1800 2475 
Q 1419 2475 1153 2201 
Q 888 1928 888 1484 
z
" transform="scale(0.015625)"/>
       </defs>
       <use xlink:href="#ArialMT-36"/>
      </g>
     </g>
    </g>
    <g id="xtick_5">
     <g id="line2d_9">
      <path d="M 343.735053 244.35226 
L 343.735053 3.00024 
" clip-path="url(#pdab66dafb4)" style="fill: none; stroke: #b0b0b0; stroke-width: 0.8; stroke-linecap: square"/>
     </g>
     <g id="line2d_10">
      <g>
       <use xlink:href="#m4fff9da071" x="343.735053" y="244.35226" style="stroke: #000000; stroke-width: 0.8"/>
      </g>
     </g>
     <g id="text_5">
      <!-- 8 -->
      <g transform="translate(339.286303 262.80476) scale(0.16 -0.16)">
       <defs>
        <path id="ArialMT-38" d="M 1131 2484 
Q 781 2613 612 2850 
Q 444 3088 444 3419 
Q 444 3919 803 4259 
Q 1163 4600 1759 4600 
Q 2359 4600 2725 4251 
Q 3091 3903 3091 3403 
Q 3091 3084 2923 2848 
Q 2756 2613 2416 2484 
Q 2838 2347 3058 2040 
Q 3278 1734 3278 1309 
Q 3278 722 2862 322 
Q 2447 -78 1769 -78 
Q 1091 -78 675 323 
Q 259 725 259 1325 
Q 259 1772 486 2073 
Q 713 2375 1131 2484 
z
M 1019 3438 
Q 1019 3113 1228 2906 
Q 1438 2700 1772 2700 
Q 2097 2700 2305 2904 
Q 2513 3109 2513 3406 
Q 2513 3716 2298 3927 
Q 2084 4138 1766 4138 
Q 1444 4138 1231 3931 
Q 1019 3725 1019 3438 
z
M 838 1322 
Q 838 1081 952 856 
Q 1066 631 1291 507 
Q 1516 384 1775 384 
Q 2178 384 2440 643 
Q 2703 903 2703 1303 
Q 2703 1709 2433 1975 
Q 2163 2241 1756 2241 
Q 1359 2241 1098 1978 
Q 838 1716 838 1322 
z
" transform="scale(0.015625)"/>
       </defs>
       <use xlink:href="#ArialMT-38"/>
      </g>
     </g>
    </g>
    <g id="xtick_6">
     <g id="line2d_11">
      <path d="M 411.960464 244.35226 
L 411.960464 3.00024 
" clip-path="url(#pdab66dafb4)" style="fill: none; stroke: #b0b0b0; stroke-width: 0.8; stroke-linecap: square"/>
     </g>
     <g id="line2d_12">
      <g>
       <use xlink:href="#m4fff9da071" x="411.960464" y="244.35226" style="stroke: #000000; stroke-width: 0.8"/>
      </g>
     </g>
     <g id="text_6">
      <!-- 10 -->
      <g transform="translate(403.062964 262.80476) scale(0.16 -0.16)">
       <defs>
        <path id="ArialMT-31" d="M 2384 0 
L 1822 0 
L 1822 3584 
Q 1619 3391 1289 3197 
Q 959 3003 697 2906 
L 697 3450 
Q 1169 3672 1522 3987 
Q 1875 4303 2022 4600 
L 2384 4600 
L 2384 0 
z
" transform="scale(0.015625)"/>
       </defs>
       <use xlink:href="#ArialMT-31"/>
       <use xlink:href="#ArialMT-30" x="55.615234"/>
      </g>
     </g>
    </g>
    <g id="text_7">
     <!-- Air Gap (µm) -->
     <g transform="translate(195.62375 281.63226) scale(0.16 -0.16)">
      <defs>
       <path id="ArialMT-41" d="M -9 0 
L 1750 4581 
L 2403 4581 
L 4278 0 
L 3588 0 
L 3053 1388 
L 1138 1388 
L 634 0 
L -9 0 
z
M 1313 1881 
L 2866 1881 
L 2388 3150 
Q 2169 3728 2063 4100 
Q 1975 3659 1816 3225 
L 1313 1881 
z
" transform="scale(0.015625)"/>
       <path id="ArialMT-69" d="M 425 3934 
L 425 4581 
L 988 4581 
L 988 3934 
L 425 3934 
z
M 425 0 
L 425 3319 
L 988 3319 
L 988 0 
L 425 0 
z
" transform="scale(0.015625)"/>
       <path id="ArialMT-72" d="M 416 0 
L 416 3319 
L 922 3319 
L 922 2816 
Q 1116 3169 1280 3281 
Q 1444 3394 1641 3394 
Q 1925 3394 2219 3213 
L 2025 2691 
Q 1819 2813 1613 2813 
Q 1428 2813 1281 2702 
Q 1134 2591 1072 2394 
Q 978 2094 978 1738 
L 978 0 
L 416 0 
z
" transform="scale(0.015625)"/>
       <path id="ArialMT-20" transform="scale(0.015625)"/>
       <path id="ArialMT-47" d="M 2638 1797 
L 2638 2334 
L 4578 2338 
L 4578 638 
Q 4131 281 3656 101 
Q 3181 -78 2681 -78 
Q 2006 -78 1454 211 
Q 903 500 622 1047 
Q 341 1594 341 2269 
Q 341 2938 620 3517 
Q 900 4097 1425 4378 
Q 1950 4659 2634 4659 
Q 3131 4659 3532 4498 
Q 3934 4338 4162 4050 
Q 4391 3763 4509 3300 
L 3963 3150 
Q 3859 3500 3706 3700 
Q 3553 3900 3268 4020 
Q 2984 4141 2638 4141 
Q 2222 4141 1919 4014 
Q 1616 3888 1430 3681 
Q 1244 3475 1141 3228 
Q 966 2803 966 2306 
Q 966 1694 1177 1281 
Q 1388 869 1791 669 
Q 2194 469 2647 469 
Q 3041 469 3416 620 
Q 3791 772 3984 944 
L 3984 1797 
L 2638 1797 
z
" transform="scale(0.015625)"/>
       <path id="ArialMT-61" d="M 2588 409 
Q 2275 144 1986 34 
Q 1697 -75 1366 -75 
Q 819 -75 525 192 
Q 231 459 231 875 
Q 231 1119 342 1320 
Q 453 1522 633 1644 
Q 813 1766 1038 1828 
Q 1203 1872 1538 1913 
Q 2219 1994 2541 2106 
Q 2544 2222 2544 2253 
Q 2544 2597 2384 2738 
Q 2169 2928 1744 2928 
Q 1347 2928 1158 2789 
Q 969 2650 878 2297 
L 328 2372 
Q 403 2725 575 2942 
Q 747 3159 1072 3276 
Q 1397 3394 1825 3394 
Q 2250 3394 2515 3294 
Q 2781 3194 2906 3042 
Q 3031 2891 3081 2659 
Q 3109 2516 3109 2141 
L 3109 1391 
Q 3109 606 3145 398 
Q 3181 191 3288 0 
L 2700 0 
Q 2613 175 2588 409 
z
M 2541 1666 
Q 2234 1541 1622 1453 
Q 1275 1403 1131 1340 
Q 988 1278 909 1158 
Q 831 1038 831 891 
Q 831 666 1001 516 
Q 1172 366 1500 366 
Q 1825 366 2078 508 
Q 2331 650 2450 897 
Q 2541 1088 2541 1459 
L 2541 1666 
z
" transform="scale(0.015625)"/>
       <path id="ArialMT-70" d="M 422 -1272 
L 422 3319 
L 934 3319 
L 934 2888 
Q 1116 3141 1344 3267 
Q 1572 3394 1897 3394 
Q 2322 3394 2647 3175 
Q 2972 2956 3137 2557 
Q 3303 2159 3303 1684 
Q 3303 1175 3120 767 
Q 2938 359 2589 142 
Q 2241 -75 1856 -75 
Q 1575 -75 1351 44 
Q 1128 163 984 344 
L 984 -1272 
L 422 -1272 
z
M 931 1641 
Q 931 1000 1190 694 
Q 1450 388 1819 388 
Q 2194 388 2461 705 
Q 2728 1022 2728 1688 
Q 2728 2322 2467 2637 
Q 2206 2953 1844 2953 
Q 1484 2953 1207 2617 
Q 931 2281 931 1641 
z
" transform="scale(0.015625)"/>
       <path id="ArialMT-28" d="M 1497 -1347 
Q 1031 -759 709 28 
Q 388 816 388 1659 
Q 388 2403 628 3084 
Q 909 3875 1497 4659 
L 1900 4659 
Q 1522 4009 1400 3731 
Q 1209 3300 1100 2831 
Q 966 2247 966 1656 
Q 966 153 1900 -1347 
L 1497 -1347 
z
" transform="scale(0.015625)"/>
       <path id="ArialMT-b5" d="M 3181 3319 
L 3181 0 
L 2678 0 
L 2678 394 
Q 2516 144 2356 50 
Q 2138 -78 1847 -78 
Q 1588 -78 1388 25 
Q 1238 103 1056 334 
L 1056 -1272 
L 500 -1272 
L 500 3319 
L 1056 3319 
L 1056 1913 
Q 1056 1147 1137 920 
Q 1219 694 1401 562 
Q 1584 431 1822 431 
Q 2072 431 2269 568 
Q 2466 706 2547 923 
Q 2628 1141 2628 1903 
L 2628 3319 
L 3181 3319 
z
" transform="scale(0.015625)"/>
       <path id="ArialMT-6d" d="M 422 0 
L 422 3319 
L 925 3319 
L 925 2853 
Q 1081 3097 1340 3245 
Q 1600 3394 1931 3394 
Q 2300 3394 2536 3241 
Q 2772 3088 2869 2813 
Q 3263 3394 3894 3394 
Q 4388 3394 4653 3120 
Q 4919 2847 4919 2278 
L 4919 0 
L 4359 0 
L 4359 2091 
Q 4359 2428 4304 2576 
Q 4250 2725 4106 2815 
Q 3963 2906 3769 2906 
Q 3419 2906 3187 2673 
Q 2956 2441 2956 1928 
L 2956 0 
L 2394 0 
L 2394 2156 
Q 2394 2531 2256 2718 
Q 2119 2906 1806 2906 
Q 1569 2906 1367 2781 
Q 1166 2656 1075 2415 
Q 984 2175 984 1722 
L 984 0 
L 422 0 
z
" transform="scale(0.015625)"/>
       <path id="ArialMT-29" d="M 791 -1347 
L 388 -1347 
Q 1322 153 1322 1656 
Q 1322 2244 1188 2822 
Q 1081 3291 891 3722 
Q 769 4003 388 4659 
L 791 4659 
Q 1378 3875 1659 3084 
Q 1900 2403 1900 1659 
Q 1900 816 1576 28 
Q 1253 -759 791 -1347 
z
" transform="scale(0.015625)"/>
      </defs>
      <use xlink:href="#ArialMT-41"/>
      <use xlink:href="#ArialMT-69" x="66.699219"/>
      <use xlink:href="#ArialMT-72" x="88.916016"/>
      <use xlink:href="#ArialMT-20" x="122.216797"/>
      <use xlink:href="#ArialMT-47" x="150"/>
      <use xlink:href="#ArialMT-61" x="227.783203"/>
      <use xlink:href="#ArialMT-70" x="283.398438"/>
      <use xlink:href="#ArialMT-20" x="339.013672"/>
      <use xlink:href="#ArialMT-28" x="366.796875"/>
      <use xlink:href="#ArialMT-b5" x="400.097656"/>
      <use xlink:href="#ArialMT-6d" x="457.714844"/>
      <use xlink:href="#ArialMT-29" x="541.015625"/>
     </g>
    </g>
   </g>
   <g id="matplotlib.axis_2">
    <g id="ytick_1">
     <g id="line2d_13">
      <path d="M 54.13524 188.723289 
L 428.99976 188.723289 
" clip-path="url(#pdab66dafb4)" style="fill: none; stroke: #b0b0b0; stroke-width: 0.8; stroke-linecap: square"/>
     </g>
     <g id="line2d_14">
      <defs>
       <path id="m560eef3b48" d="M 0 0 
L -3.5 0 
" style="stroke: #000000; stroke-width: 0.8"/>
      </defs>
      <g>
       <use xlink:href="#m560eef3b48" x="54.13524" y="188.723289" style="stroke: #000000; stroke-width: 0.8"/>
      </g>
     </g>
     <g id="text_8">
      <!-- $\mathdefault{10^{0}}$ -->
      <g transform="translate(22.01524 196.973289) scale(0.16 -0.16)">
       <use xlink:href="#ArialMT-31" transform="translate(0 0.99375)"/>
       <use xlink:href="#ArialMT-30" transform="translate(55.615234 0.99375)"/>
       <use xlink:href="#ArialMT-30" transform="translate(112.972813 70.6875) scale(0.7)"/>
      </g>
     </g>
    </g>
    <g id="ytick_2">
     <g id="line2d_15">
      <path d="M 54.13524 118.636965 
L 428.99976 118.636965 
" clip-path="url(#pdab66dafb4)" style="fill: none; stroke: #b0b0b0; stroke-width: 0.8; stroke-linecap: square"/>
     </g>
     <g id="line2d_16">
      <g>
       <use xlink:href="#m560eef3b48" x="54.13524" y="118.636965" style="stroke: #000000; stroke-width: 0.8"/>
      </g>
     </g>
     <g id="text_9">
      <!-- $\mathdefault{10^{1}}$ -->
      <g transform="translate(22.01524 126.886965) scale(0.16 -0.16)">
       <use xlink:href="#ArialMT-31" transform="translate(0 0.99375)"/>
       <use xlink:href="#ArialMT-30" transform="translate(55.615234 0.99375)"/>
       <use xlink:href="#ArialMT-31" transform="translate(112.972813 70.6875) scale(0.7)"/>
      </g>
     </g>
    </g>
    <g id="ytick_3">
     <g id="line2d_17">
      <path d="M 54.13524 48.550641 
L 428.99976 48.550641 
" clip-path="url(#pdab66dafb4)" style="fill: none; stroke: #b0b0b0; stroke-width: 0.8; stroke-linecap: square"/>
     </g>
     <g id="line2d_18">
      <g>
       <use xlink:href="#m560eef3b48" x="54.13524" y="48.550641" style="stroke: #000000; stroke-width: 0.8"/>
      </g>
     </g>
     <g id="text_10">
      <!-- $\mathdefault{10^{2}}$ -->
      <g transform="translate(22.01524 56.800641) scale(0.16 -0.16)">
       <use xlink:href="#ArialMT-31" transform="translate(0 0.99375)"/>
       <use xlink:href="#ArialMT-30" transform="translate(55.615234 0.99375)"/>
       <use xlink:href="#ArialMT-32" transform="translate(112.972813 70.6875) scale(0.7)"/>
      </g>
     </g>
    </g>
    <g id="ytick_4">
     <g id="line2d_19">
      <defs>
       <path id="m17ff6ec08e" d="M 0 0 
L -2 0 
" style="stroke: #000000; stroke-width: 0.6"/>
      </defs>
      <g>
       <use xlink:href="#m17ff6ec08e" x="54.13524" y="237.711527" style="stroke: #000000; stroke-width: 0.6"/>
      </g>
     </g>
    </g>
    <g id="ytick_5">
     <g id="line2d_20">
      <g>
       <use xlink:href="#m17ff6ec08e" x="54.13524" y="225.369938" style="stroke: #000000; stroke-width: 0.6"/>
      </g>
     </g>
    </g>
    <g id="ytick_6">
     <g id="line2d_21">
      <g>
       <use xlink:href="#m17ff6ec08e" x="54.13524" y="216.613442" style="stroke: #000000; stroke-width: 0.6"/>
      </g>
     </g>
    </g>
    <g id="ytick_7">
     <g id="line2d_22">
      <g>
       <use xlink:href="#m17ff6ec08e" x="54.13524" y="209.821375" style="stroke: #000000; stroke-width: 0.6"/>
      </g>
     </g>
    </g>
    <g id="ytick_8">
     <g id="line2d_23">
      <g>
       <use xlink:href="#m17ff6ec08e" x="54.13524" y="204.271853" style="stroke: #000000; stroke-width: 0.6"/>
      </g>
     </g>
    </g>
    <g id="ytick_9">
     <g id="line2d_24">
      <g>
       <use xlink:href="#m17ff6ec08e" x="54.13524" y="199.579798" style="stroke: #000000; stroke-width: 0.6"/>
      </g>
     </g>
    </g>
    <g id="ytick_10">
     <g id="line2d_25">
      <g>
       <use xlink:href="#m17ff6ec08e" x="54.13524" y="195.515356" style="stroke: #000000; stroke-width: 0.6"/>
      </g>
     </g>
    </g>
    <g id="ytick_11">
     <g id="line2d_26">
      <g>
       <use xlink:href="#m17ff6ec08e" x="54.13524" y="191.930264" style="stroke: #000000; stroke-width: 0.6"/>
      </g>
     </g>
    </g>
    <g id="ytick_12">
     <g id="line2d_27">
      <g>
       <use xlink:href="#m17ff6ec08e" x="54.13524" y="167.625203" style="stroke: #000000; stroke-width: 0.6"/>
      </g>
     </g>
    </g>
    <g id="ytick_13">
     <g id="line2d_28">
      <g>
       <use xlink:href="#m17ff6ec08e" x="54.13524" y="155.283614" style="stroke: #000000; stroke-width: 0.6"/>
      </g>
     </g>
    </g>
    <g id="ytick_14">
     <g id="line2d_29">
      <g>
       <use xlink:href="#m17ff6ec08e" x="54.13524" y="146.527118" style="stroke: #000000; stroke-width: 0.6"/>
      </g>
     </g>
    </g>
    <g id="ytick_15">
     <g id="line2d_30">
      <g>
       <use xlink:href="#m17ff6ec08e" x="54.13524" y="139.735051" style="stroke: #000000; stroke-width: 0.6"/>
      </g>
     </g>
    </g>
    <g id="ytick_16">
     <g id="line2d_31">
      <g>
       <use xlink:href="#m17ff6ec08e" x="54.13524" y="134.185529" style="stroke: #000000; stroke-width: 0.6"/>
      </g>
     </g>
    </g>
    <g id="ytick_17">
     <g id="line2d_32">
      <g>
       <use xlink:href="#m17ff6ec08e" x="54.13524" y="129.493474" style="stroke: #000000; stroke-width: 0.6"/>
      </g>
     </g>
    </g>
    <g id="ytick_18">
     <g id="line2d_33">
      <g>
       <use xlink:href="#m17ff6ec08e" x="54.13524" y="125.429032" style="stroke: #000000; stroke-width: 0.6"/>
      </g>
     </g>
    </g>
    <g id="ytick_19">
     <g id="line2d_34">
      <g>
       <use xlink:href="#m17ff6ec08e" x="54.13524" y="121.84394" style="stroke: #000000; stroke-width: 0.6"/>
      </g>
     </g>
    </g>
    <g id="ytick_20">
     <g id="line2d_35">
      <g>
       <use xlink:href="#m17ff6ec08e" x="54.13524" y="97.53888" style="stroke: #000000; stroke-width: 0.6"/>
      </g>
     </g>
    </g>
    <g id="ytick_21">
     <g id="line2d_36">
      <g>
       <use xlink:href="#m17ff6ec08e" x="54.13524" y="85.197291" style="stroke: #000000; stroke-width: 0.6"/>
      </g>
     </g>
    </g>
    <g id="ytick_22">
     <g id="line2d_37">
      <g>
       <use xlink:href="#m17ff6ec08e" x="54.13524" y="76.440794" style="stroke: #000000; stroke-width: 0.6"/>
      </g>
     </g>
    </g>
    <g id="ytick_23">
     <g id="line2d_38">
      <g>
       <use xlink:href="#m17ff6ec08e" x="54.13524" y="69.648727" style="stroke: #000000; stroke-width: 0.6"/>
      </g>
     </g>
    </g>
    <g id="ytick_24">
     <g id="line2d_39">
      <g>
       <use xlink:href="#m17ff6ec08e" x="54.13524" y="64.099205" style="stroke: #000000; stroke-width: 0.6"/>
      </g>
     </g>
    </g>
    <g id="ytick_25">
     <g id="line2d_40">
      <g>
       <use xlink:href="#m17ff6ec08e" x="54.13524" y="59.40715" style="stroke: #000000; stroke-width: 0.6"/>
      </g>
     </g>
    </g>
    <g id="ytick_26">
     <g id="line2d_41">
      <g>
       <use xlink:href="#m17ff6ec08e" x="54.13524" y="55.342708" style="stroke: #000000; stroke-width: 0.6"/>
      </g>
     </g>
    </g>
    <g id="ytick_27">
     <g id="line2d_42">
      <g>
       <use xlink:href="#m17ff6ec08e" x="54.13524" y="51.757616" style="stroke: #000000; stroke-width: 0.6"/>
      </g>
     </g>
    </g>
    <g id="ytick_28">
     <g id="line2d_43">
      <g>
       <use xlink:href="#m17ff6ec08e" x="54.13524" y="27.452556" style="stroke: #000000; stroke-width: 0.6"/>
      </g>
     </g>
    </g>
    <g id="ytick_29">
     <g id="line2d_44">
      <g>
       <use xlink:href="#m17ff6ec08e" x="54.13524" y="15.110967" style="stroke: #000000; stroke-width: 0.6"/>
      </g>
     </g>
    </g>
    <g id="ytick_30">
     <g id="line2d_45">
      <g>
       <use xlink:href="#m17ff6ec08e" x="54.13524" y="6.35447" style="stroke: #000000; stroke-width: 0.6"/>
      </g>
     </g>
    </g>
    <g id="text_11">
     <!-- Normal Pressure (kPa) -->
     <g transform="translate(14.64774 205.02375) rotate(-90) scale(0.16 -0.16)">
      <defs>
       <path id="ArialMT-4e" d="M 488 0 
L 488 4581 
L 1109 4581 
L 3516 984 
L 3516 4581 
L 4097 4581 
L 4097 0 
L 3475 0 
L 1069 3600 
L 1069 0 
L 488 0 
z
" transform="scale(0.015625)"/>
       <path id="ArialMT-6f" d="M 213 1659 
Q 213 2581 725 3025 
Q 1153 3394 1769 3394 
Q 2453 3394 2887 2945 
Q 3322 2497 3322 1706 
Q 3322 1066 3130 698 
Q 2938 331 2570 128 
Q 2203 -75 1769 -75 
Q 1072 -75 642 372 
Q 213 819 213 1659 
z
M 791 1659 
Q 791 1022 1069 705 
Q 1347 388 1769 388 
Q 2188 388 2466 706 
Q 2744 1025 2744 1678 
Q 2744 2294 2464 2611 
Q 2184 2928 1769 2928 
Q 1347 2928 1069 2612 
Q 791 2297 791 1659 
z
" transform="scale(0.015625)"/>
       <path id="ArialMT-6c" d="M 409 0 
L 409 4581 
L 972 4581 
L 972 0 
L 409 0 
z
" transform="scale(0.015625)"/>
       <path id="ArialMT-50" d="M 494 0 
L 494 4581 
L 2222 4581 
Q 2678 4581 2919 4538 
Q 3256 4481 3484 4323 
Q 3713 4166 3852 3881 
Q 3991 3597 3991 3256 
Q 3991 2672 3619 2267 
Q 3247 1863 2275 1863 
L 1100 1863 
L 1100 0 
L 494 0 
z
M 1100 2403 
L 2284 2403 
Q 2872 2403 3119 2622 
Q 3366 2841 3366 3238 
Q 3366 3525 3220 3729 
Q 3075 3934 2838 4000 
Q 2684 4041 2272 4041 
L 1100 4041 
L 1100 2403 
z
" transform="scale(0.015625)"/>
       <path id="ArialMT-65" d="M 2694 1069 
L 3275 997 
Q 3138 488 2766 206 
Q 2394 -75 1816 -75 
Q 1088 -75 661 373 
Q 234 822 234 1631 
Q 234 2469 665 2931 
Q 1097 3394 1784 3394 
Q 2450 3394 2872 2941 
Q 3294 2488 3294 1666 
Q 3294 1616 3291 1516 
L 816 1516 
Q 847 969 1125 678 
Q 1403 388 1819 388 
Q 2128 388 2347 550 
Q 2566 713 2694 1069 
z
M 847 1978 
L 2700 1978 
Q 2663 2397 2488 2606 
Q 2219 2931 1791 2931 
Q 1403 2931 1139 2672 
Q 875 2413 847 1978 
z
" transform="scale(0.015625)"/>
       <path id="ArialMT-73" d="M 197 991 
L 753 1078 
Q 800 744 1014 566 
Q 1228 388 1613 388 
Q 2000 388 2187 545 
Q 2375 703 2375 916 
Q 2375 1106 2209 1216 
Q 2094 1291 1634 1406 
Q 1016 1563 777 1677 
Q 538 1791 414 1992 
Q 291 2194 291 2438 
Q 291 2659 392 2848 
Q 494 3038 669 3163 
Q 800 3259 1026 3326 
Q 1253 3394 1513 3394 
Q 1903 3394 2198 3281 
Q 2494 3169 2634 2976 
Q 2775 2784 2828 2463 
L 2278 2388 
Q 2241 2644 2061 2787 
Q 1881 2931 1553 2931 
Q 1166 2931 1000 2803 
Q 834 2675 834 2503 
Q 834 2394 903 2306 
Q 972 2216 1119 2156 
Q 1203 2125 1616 2013 
Q 2213 1853 2448 1751 
Q 2684 1650 2818 1456 
Q 2953 1263 2953 975 
Q 2953 694 2789 445 
Q 2625 197 2315 61 
Q 2006 -75 1616 -75 
Q 969 -75 630 194 
Q 291 463 197 991 
z
" transform="scale(0.015625)"/>
       <path id="ArialMT-75" d="M 2597 0 
L 2597 488 
Q 2209 -75 1544 -75 
Q 1250 -75 995 37 
Q 741 150 617 320 
Q 494 491 444 738 
Q 409 903 409 1263 
L 409 3319 
L 972 3319 
L 972 1478 
Q 972 1038 1006 884 
Q 1059 663 1231 536 
Q 1403 409 1656 409 
Q 1909 409 2131 539 
Q 2353 669 2445 892 
Q 2538 1116 2538 1541 
L 2538 3319 
L 3100 3319 
L 3100 0 
L 2597 0 
z
" transform="scale(0.015625)"/>
       <path id="ArialMT-6b" d="M 425 0 
L 425 4581 
L 988 4581 
L 988 1969 
L 2319 3319 
L 3047 3319 
L 1778 2088 
L 3175 0 
L 2481 0 
L 1384 1697 
L 988 1316 
L 988 0 
L 425 0 
z
" transform="scale(0.015625)"/>
      </defs>
      <use xlink:href="#ArialMT-4e"/>
      <use xlink:href="#ArialMT-6f" x="72.216797"/>
      <use xlink:href="#ArialMT-72" x="127.832031"/>
      <use xlink:href="#ArialMT-6d" x="161.132812"/>
      <use xlink:href="#ArialMT-61" x="244.433594"/>
      <use xlink:href="#ArialMT-6c" x="300.048828"/>
      <use xlink:href="#ArialMT-20" x="322.265625"/>
      <use xlink:href="#ArialMT-50" x="350.048828"/>
      <use xlink:href="#ArialMT-72" x="416.748047"/>
      <use xlink:href="#ArialMT-65" x="450.048828"/>
      <use xlink:href="#ArialMT-73" x="505.664062"/>
      <use xlink:href="#ArialMT-73" x="555.664062"/>
      <use xlink:href="#ArialMT-75" x="605.664062"/>
      <use xlink:href="#ArialMT-72" x="661.279297"/>
      <use xlink:href="#ArialMT-65" x="694.580078"/>
      <use xlink:href="#ArialMT-20" x="750.195312"/>
      <use xlink:href="#ArialMT-28" x="777.978516"/>
      <use xlink:href="#ArialMT-6b" x="811.279297"/>
      <use xlink:href="#ArialMT-50" x="861.279297"/>
      <use xlink:href="#ArialMT-61" x="927.978516"/>
      <use xlink:href="#ArialMT-29" x="983.59375"/>
     </g>
    </g>
   </g>
   <g id="line2d_46">
    <path d="M 71.174536 14.000807 
L 73.221299 21.032794 
L 75.268061 27.335957 
L 77.65595 33.949174 
L 80.04384 39.913849 
L 82.772856 46.083805 
L 85.501873 51.685566 
L 88.230889 56.815017 
L 91.301033 62.111939 
L 94.371176 66.984636 
L 97.782447 71.977285 
L 101.193717 76.591327 
L 104.946115 81.292878 
L 109.039639 86.038881 
L 113.133164 90.441489 
L 117.567816 94.877011 
L 122.343595 99.31787 
L 127.119373 103.456681 
L 132.236279 107.599518 
L 137.694312 111.728301 
L 143.493472 115.828446 
L 149.633759 119.888364 
L 156.115173 123.898992 
L 162.937714 127.853383 
L 170.101382 131.746338 
L 177.606177 135.574104 
L 185.793227 139.492424 
L 194.321403 143.322379 
L 203.190706 147.065357 
L 212.742264 150.854433 
L 222.976076 154.668386 
L 233.551014 158.373479 
L 244.808207 162.084535 
L 256.747654 165.787966 
L 269.369355 169.472524 
L 283.014437 173.219935 
L 297.341773 176.921221 
L 312.692491 180.65204 
L 328.725462 184.31898 
L 345.781815 187.991759 
L 363.861549 191.657192 
L 382.964664 195.304344 
L 403.432287 198.983784 
L 411.960464 200.453586 
L 411.960464 200.453586 
" clip-path="url(#pdab66dafb4)" style="fill: none; stroke: #1964b0; stroke-width: 2; stroke-linecap: square"/>
   </g>
   <g id="line2d_47">
    <path d="M 71.174536 131.820145 
L 411.960464 131.820145 
L 411.960464 131.820145 
" clip-path="url(#pdab66dafb4)" style="fill: none; stroke-dasharray: 7.4,3.2; stroke-dashoffset: 0; stroke: #1964b0; stroke-width: 2"/>
   </g>
   <g id="line2d_48">
    <path d="M 71.174536 184.091405 
L 88.230889 187.777532 
L 106.310623 191.455504 
L 125.413738 195.114402 
L 145.881361 198.805 
L 167.372366 202.453453 
L 190.227878 206.107668 
L 214.447899 209.754655 
L 240.373555 213.430586 
L 267.66372 217.074229 
L 296.659519 220.720601 
L 327.360954 224.357288 
L 360.109151 228.010957 
L 394.904111 231.666777 
L 411.960464 233.381714 
L 411.960464 233.381714 
" clip-path="url(#pdab66dafb4)" style="fill: none; stroke: #db060b; stroke-width: 2; stroke-linecap: square"/>
   </g>
   <g id="line2d_49">
    <path d="M 71.174536 217.455032 
L 411.960464 217.455032 
L 411.960464 217.455032 
" clip-path="url(#pdab66dafb4)" style="fill: none; stroke-dasharray: 7.4,3.2; stroke-dashoffset: 0; stroke: #db060b; stroke-width: 2"/>
   </g>
   <g id="patch_3">
    <path d="M 54.13524 244.35226 
L 54.13524 3.00024 
" style="fill: none; stroke: #000000; stroke-width: 0.8; stroke-linejoin: miter; stroke-linecap: square"/>
   </g>
   <g id="patch_4">
    <path d="M 428.99976 244.35226 
L 428.99976 3.00024 
" style="fill: none; stroke: #000000; stroke-width: 0.8; stroke-linejoin: miter; stroke-linecap: square"/>
   </g>
   <g id="patch_5">
    <path d="M 54.13524 244.35226 
L 428.99976 244.35226 
" style="fill: none; stroke: #000000; stroke-width: 0.8; stroke-linejoin: miter; stroke-linecap: square"/>
   </g>
   <g id="patch_6">
    <path d="M 54.13524 3.00024 
L 428.99976 3.00024 
" style="fill: none; stroke: #000000; stroke-width: 0.8; stroke-linejoin: miter; stroke-linecap: square"/>
   </g>
   <g id="legend_1">
    <g id="patch_7">
     <path d="M 180.48476 113.63024 
L 420.94976 113.63024 
Q 423.24976 113.63024 423.24976 111.33024 
L 423.24976 11.05024 
Q 423.24976 8.75024 420.94976 8.75024 
L 180.48476 8.75024 
Q 178.18476 8.75024 178.18476 11.05024 
L 178.18476 111.33024 
Q 178.18476 113.63024 180.48476 113.63024 
z
" style="fill: #ffffff; opacity: 0.8; stroke: #cccccc; stroke-linejoin: miter"/>
    </g>
    <g id="PathCollection_1">
     <defs>
      <path id="ma3e9d8b904" d="M 0 3 
C 0.795609 3 1.55874 2.683901 2.12132 2.12132 
C 2.683901 1.55874 3 0.795609 3 0 
C 3 -0.795609 2.683901 -1.55874 2.12132 -2.12132 
C 1.55874 -2.683901 0.795609 -3 0 -3 
C -0.795609 -3 -1.55874 -2.683901 -2.12132 -2.12132 
C -2.683901 -1.55874 -3 -0.795609 -3 0 
C -3 0.795609 -2.683901 1.55874 -2.12132 2.12132 
C -1.55874 2.683901 -0.795609 3 0 3 
z
" style="stroke: #000000"/>
     </defs>
     <g>
      <use xlink:href="#ma3e9d8b904" x="194.28476" y="18.95649" style="stroke: #000000"/>
     </g>
    </g>
    <g id="text_12">
     <!-- Simulated ($\kappa = 50$) -->
     <g transform="translate(214.98476 21.97524) scale(0.115 -0.115)">
      <defs>
       <path id="ArialMT-53" d="M 288 1472 
L 859 1522 
Q 900 1178 1048 958 
Q 1197 738 1509 602 
Q 1822 466 2213 466 
Q 2559 466 2825 569 
Q 3091 672 3220 851 
Q 3350 1031 3350 1244 
Q 3350 1459 3225 1620 
Q 3100 1781 2813 1891 
Q 2628 1963 1997 2114 
Q 1366 2266 1113 2400 
Q 784 2572 623 2826 
Q 463 3081 463 3397 
Q 463 3744 659 4045 
Q 856 4347 1234 4503 
Q 1613 4659 2075 4659 
Q 2584 4659 2973 4495 
Q 3363 4331 3572 4012 
Q 3781 3694 3797 3291 
L 3216 3247 
Q 3169 3681 2898 3903 
Q 2628 4125 2100 4125 
Q 1550 4125 1298 3923 
Q 1047 3722 1047 3438 
Q 1047 3191 1225 3031 
Q 1400 2872 2139 2705 
Q 2878 2538 3153 2413 
Q 3553 2228 3743 1945 
Q 3934 1663 3934 1294 
Q 3934 928 3725 604 
Q 3516 281 3123 101 
Q 2731 -78 2241 -78 
Q 1619 -78 1198 103 
Q 778 284 539 648 
Q 300 1013 288 1472 
z
" transform="scale(0.015625)"/>
       <path id="ArialMT-74" d="M 1650 503 
L 1731 6 
Q 1494 -44 1306 -44 
Q 1000 -44 831 53 
Q 663 150 594 308 
Q 525 466 525 972 
L 525 2881 
L 113 2881 
L 113 3319 
L 525 3319 
L 525 4141 
L 1084 4478 
L 1084 3319 
L 1650 3319 
L 1650 2881 
L 1084 2881 
L 1084 941 
Q 1084 700 1114 631 
Q 1144 563 1211 522 
Q 1278 481 1403 481 
Q 1497 481 1650 503 
z
" transform="scale(0.015625)"/>
       <path id="ArialMT-64" d="M 2575 0 
L 2575 419 
Q 2259 -75 1647 -75 
Q 1250 -75 917 144 
Q 584 363 401 755 
Q 219 1147 219 1656 
Q 219 2153 384 2558 
Q 550 2963 881 3178 
Q 1213 3394 1622 3394 
Q 1922 3394 2156 3267 
Q 2391 3141 2538 2938 
L 2538 4581 
L 3097 4581 
L 3097 0 
L 2575 0 
z
M 797 1656 
Q 797 1019 1065 703 
Q 1334 388 1700 388 
Q 2069 388 2326 689 
Q 2584 991 2584 1609 
Q 2584 2291 2321 2609 
Q 2059 2928 1675 2928 
Q 1300 2928 1048 2622 
Q 797 2316 797 1656 
z
" transform="scale(0.015625)"/>
       <path id="DejaVuSans-Oblique-3ba" d="M 938 3500 
L 1531 3500 
L 1247 2047 
L 3041 3500 
L 3741 3500 
L 2106 2181 
L 3275 0 
L 2572 0 
L 1628 1806 
L 1122 1403 
L 850 0 
L 256 0 
L 938 3500 
z
" transform="scale(0.015625)"/>
       <path id="DejaVuSans-3d" d="M 678 2906 
L 4684 2906 
L 4684 2381 
L 678 2381 
L 678 2906 
z
M 678 1631 
L 4684 1631 
L 4684 1100 
L 678 1100 
L 678 1631 
z
" transform="scale(0.015625)"/>
       <path id="DejaVuSans-35" d="M 691 4666 
L 3169 4666 
L 3169 4134 
L 1269 4134 
L 1269 2991 
Q 1406 3038 1543 3061 
Q 1681 3084 1819 3084 
Q 2600 3084 3056 2656 
Q 3513 2228 3513 1497 
Q 3513 744 3044 326 
Q 2575 -91 1722 -91 
Q 1428 -91 1123 -41 
Q 819 9 494 109 
L 494 744 
Q 775 591 1075 516 
Q 1375 441 1709 441 
Q 2250 441 2565 725 
Q 2881 1009 2881 1497 
Q 2881 1984 2565 2268 
Q 2250 2553 1709 2553 
Q 1456 2553 1204 2497 
Q 953 2441 691 2322 
L 691 4666 
z
" transform="scale(0.015625)"/>
       <path id="DejaVuSans-30" d="M 2034 4250 
Q 1547 4250 1301 3770 
Q 1056 3291 1056 2328 
Q 1056 1369 1301 889 
Q 1547 409 2034 409 
Q 2525 409 2770 889 
Q 3016 1369 3016 2328 
Q 3016 3291 2770 3770 
Q 2525 4250 2034 4250 
z
M 2034 4750 
Q 2819 4750 3233 4129 
Q 3647 3509 3647 2328 
Q 3647 1150 3233 529 
Q 2819 -91 2034 -91 
Q 1250 -91 836 529 
Q 422 1150 422 2328 
Q 422 3509 836 4129 
Q 1250 4750 2034 4750 
z
" transform="scale(0.015625)"/>
      </defs>
      <use xlink:href="#ArialMT-53" transform="translate(0 0.78125)"/>
      <use xlink:href="#ArialMT-69" transform="translate(66.699219 0.78125)"/>
      <use xlink:href="#ArialMT-6d" transform="translate(88.916016 0.78125)"/>
      <use xlink:href="#ArialMT-75" transform="translate(172.216797 0.78125)"/>
      <use xlink:href="#ArialMT-6c" transform="translate(227.832031 0.78125)"/>
      <use xlink:href="#ArialMT-61" transform="translate(250.048828 0.78125)"/>
      <use xlink:href="#ArialMT-74" transform="translate(305.664062 0.78125)"/>
      <use xlink:href="#ArialMT-65" transform="translate(333.447266 0.78125)"/>
      <use xlink:href="#ArialMT-64" transform="translate(389.0625 0.78125)"/>
      <use xlink:href="#ArialMT-20" transform="translate(444.677734 0.78125)"/>
      <use xlink:href="#ArialMT-28" transform="translate(472.460938 0.78125)"/>
      <use xlink:href="#DejaVuSans-Oblique-3ba" transform="translate(505.761719 0.78125)"/>
      <use xlink:href="#DejaVuSans-3d" transform="translate(584.179688 0.78125)"/>
      <use xlink:href="#DejaVuSans-35" transform="translate(687.451172 0.78125)"/>
      <use xlink:href="#DejaVuSans-30" transform="translate(751.074219 0.78125)"/>
      <use xlink:href="#ArialMT-29" transform="translate(814.697266 0.78125)"/>
     </g>
    </g>
    <g id="line2d_50">
     <path d="M 182.78476 34.85524 
L 194.28476 34.85524 
L 205.78476 34.85524 
" style="fill: none; stroke: #1964b0; stroke-width: 2; stroke-linecap: square"/>
    </g>
    <g id="text_13">
     <!-- Model with Air Gap (Eq. 4, $\kappa = 50$) -->
     <g transform="translate(214.98476 38.88024) scale(0.115 -0.115)">
      <defs>
       <path id="ArialMT-4d" d="M 475 0 
L 475 4581 
L 1388 4581 
L 2472 1338 
Q 2622 884 2691 659 
Q 2769 909 2934 1394 
L 4031 4581 
L 4847 4581 
L 4847 0 
L 4263 0 
L 4263 3834 
L 2931 0 
L 2384 0 
L 1059 3900 
L 1059 0 
L 475 0 
z
" transform="scale(0.015625)"/>
       <path id="ArialMT-77" d="M 1034 0 
L 19 3319 
L 600 3319 
L 1128 1403 
L 1325 691 
Q 1338 744 1497 1375 
L 2025 3319 
L 2603 3319 
L 3100 1394 
L 3266 759 
L 3456 1400 
L 4025 3319 
L 4572 3319 
L 3534 0 
L 2950 0 
L 2422 1988 
L 2294 2553 
L 1622 0 
L 1034 0 
z
" transform="scale(0.015625)"/>
       <path id="ArialMT-68" d="M 422 0 
L 422 4581 
L 984 4581 
L 984 2938 
Q 1378 3394 1978 3394 
Q 2347 3394 2619 3248 
Q 2891 3103 3008 2847 
Q 3125 2591 3125 2103 
L 3125 0 
L 2563 0 
L 2563 2103 
Q 2563 2525 2380 2717 
Q 2197 2909 1863 2909 
Q 1613 2909 1392 2779 
Q 1172 2650 1078 2428 
Q 984 2206 984 1816 
L 984 0 
L 422 0 
z
" transform="scale(0.015625)"/>
       <path id="ArialMT-45" d="M 506 0 
L 506 4581 
L 3819 4581 
L 3819 4041 
L 1113 4041 
L 1113 2638 
L 3647 2638 
L 3647 2100 
L 1113 2100 
L 1113 541 
L 3925 541 
L 3925 0 
L 506 0 
z
" transform="scale(0.015625)"/>
       <path id="ArialMT-71" d="M 2538 -1272 
L 2538 353 
Q 2406 169 2170 47 
Q 1934 -75 1669 -75 
Q 1078 -75 651 397 
Q 225 869 225 1691 
Q 225 2191 398 2587 
Q 572 2984 901 3189 
Q 1231 3394 1625 3394 
Q 2241 3394 2594 2875 
L 2594 3319 
L 3100 3319 
L 3100 -1272 
L 2538 -1272 
z
M 803 1669 
Q 803 1028 1072 708 
Q 1341 388 1716 388 
Q 2075 388 2334 692 
Q 2594 997 2594 1619 
Q 2594 2281 2320 2615 
Q 2047 2950 1678 2950 
Q 1313 2950 1058 2639 
Q 803 2328 803 1669 
z
" transform="scale(0.015625)"/>
       <path id="ArialMT-2e" d="M 581 0 
L 581 641 
L 1222 641 
L 1222 0 
L 581 0 
z
" transform="scale(0.015625)"/>
       <path id="ArialMT-2c" d="M 569 0 
L 569 641 
L 1209 641 
L 1209 0 
Q 1209 -353 1084 -570 
Q 959 -788 688 -906 
L 531 -666 
Q 709 -588 793 -436 
Q 878 -284 888 0 
L 569 0 
z
" transform="scale(0.015625)"/>
      </defs>
      <use xlink:href="#ArialMT-4d" transform="translate(0 0.78125)"/>
      <use xlink:href="#ArialMT-6f" transform="translate(83.300781 0.78125)"/>
      <use xlink:href="#ArialMT-64" transform="translate(138.916016 0.78125)"/>
      <use xlink:href="#ArialMT-65" transform="translate(194.53125 0.78125)"/>
      <use xlink:href="#ArialMT-6c" transform="translate(250.146484 0.78125)"/>
      <use xlink:href="#ArialMT-20" transform="translate(272.363281 0.78125)"/>
      <use xlink:href="#ArialMT-77" transform="translate(300.146484 0.78125)"/>
      <use xlink:href="#ArialMT-69" transform="translate(372.363281 0.78125)"/>
      <use xlink:href="#ArialMT-74" transform="translate(394.580078 0.78125)"/>
      <use xlink:href="#ArialMT-68" transform="translate(422.363281 0.78125)"/>
      <use xlink:href="#ArialMT-20" transform="translate(477.978516 0.78125)"/>
      <use xlink:href="#ArialMT-41" transform="translate(505.761719 0.78125)"/>
      <use xlink:href="#ArialMT-69" transform="translate(572.460938 0.78125)"/>
      <use xlink:href="#ArialMT-72" transform="translate(594.677734 0.78125)"/>
      <use xlink:href="#ArialMT-20" transform="translate(627.978516 0.78125)"/>
      <use xlink:href="#ArialMT-47" transform="translate(655.761719 0.78125)"/>
      <use xlink:href="#ArialMT-61" transform="translate(733.544922 0.78125)"/>
      <use xlink:href="#ArialMT-70" transform="translate(789.160156 0.78125)"/>
      <use xlink:href="#ArialMT-20" transform="translate(844.775391 0.78125)"/>
      <use xlink:href="#ArialMT-28" transform="translate(872.558594 0.78125)"/>
      <use xlink:href="#ArialMT-45" transform="translate(905.859375 0.78125)"/>
      <use xlink:href="#ArialMT-71" transform="translate(972.558594 0.78125)"/>
      <use xlink:href="#ArialMT-2e" transform="translate(1028.173828 0.78125)"/>
      <use xlink:href="#ArialMT-20" transform="translate(1055.957031 0.78125)"/>
      <use xlink:href="#ArialMT-34" transform="translate(1083.740234 0.78125)"/>
      <use xlink:href="#ArialMT-2c" transform="translate(1139.355469 0.78125)"/>
      <use xlink:href="#ArialMT-20" transform="translate(1167.138672 0.78125)"/>
      <use xlink:href="#DejaVuSans-Oblique-3ba" transform="translate(1194.921875 0.78125)"/>
      <use xlink:href="#DejaVuSans-3d" transform="translate(1273.339844 0.78125)"/>
      <use xlink:href="#DejaVuSans-35" transform="translate(1376.611328 0.78125)"/>
      <use xlink:href="#DejaVuSans-30" transform="translate(1440.234375 0.78125)"/>
      <use xlink:href="#ArialMT-29" transform="translate(1503.857422 0.78125)"/>
     </g>
    </g>
    <g id="line2d_51">
     <path d="M 182.78476 51.76024 
L 194.28476 51.76024 
L 205.78476 51.76024 
" style="fill: none; stroke-dasharray: 7.4,3.2; stroke-dashoffset: 0; stroke: #1964b0; stroke-width: 2"/>
    </g>
    <g id="text_14">
     <!-- Model with Zero Air Gap (Eq. 5, $\kappa = 50$) -->
     <g transform="translate(214.98476 55.78524) scale(0.115 -0.115)">
      <defs>
       <path id="ArialMT-5a" d="M 128 0 
L 128 563 
L 2475 3497 
Q 2725 3809 2950 4041 
L 394 4041 
L 394 4581 
L 3675 4581 
L 3675 4041 
L 1103 863 
L 825 541 
L 3750 541 
L 3750 0 
L 128 0 
z
" transform="scale(0.015625)"/>
       <path id="ArialMT-35" d="M 266 1200 
L 856 1250 
Q 922 819 1161 601 
Q 1400 384 1738 384 
Q 2144 384 2425 690 
Q 2706 997 2706 1503 
Q 2706 1984 2436 2262 
Q 2166 2541 1728 2541 
Q 1456 2541 1237 2417 
Q 1019 2294 894 2097 
L 366 2166 
L 809 4519 
L 3088 4519 
L 3088 3981 
L 1259 3981 
L 1013 2750 
Q 1425 3038 1878 3038 
Q 2478 3038 2890 2622 
Q 3303 2206 3303 1553 
Q 3303 931 2941 478 
Q 2500 -78 1738 -78 
Q 1113 -78 717 272 
Q 322 622 266 1200 
z
" transform="scale(0.015625)"/>
      </defs>
      <use xlink:href="#ArialMT-4d" transform="translate(0 0.78125)"/>
      <use xlink:href="#ArialMT-6f" transform="translate(83.300781 0.78125)"/>
      <use xlink:href="#ArialMT-64" transform="translate(138.916016 0.78125)"/>
      <use xlink:href="#ArialMT-65" transform="translate(194.53125 0.78125)"/>
      <use xlink:href="#ArialMT-6c" transform="translate(250.146484 0.78125)"/>
      <use xlink:href="#ArialMT-20" transform="translate(272.363281 0.78125)"/>
      <use xlink:href="#ArialMT-77" transform="translate(300.146484 0.78125)"/>
      <use xlink:href="#ArialMT-69" transform="translate(372.363281 0.78125)"/>
      <use xlink:href="#ArialMT-74" transform="translate(394.580078 0.78125)"/>
      <use xlink:href="#ArialMT-68" transform="translate(422.363281 0.78125)"/>
      <use xlink:href="#ArialMT-20" transform="translate(477.978516 0.78125)"/>
      <use xlink:href="#ArialMT-5a" transform="translate(505.761719 0.78125)"/>
      <use xlink:href="#ArialMT-65" transform="translate(566.845703 0.78125)"/>
      <use xlink:href="#ArialMT-72" transform="translate(622.460938 0.78125)"/>
      <use xlink:href="#ArialMT-6f" transform="translate(655.761719 0.78125)"/>
      <use xlink:href="#ArialMT-20" transform="translate(711.376953 0.78125)"/>
      <use xlink:href="#ArialMT-41" transform="translate(739.160156 0.78125)"/>
      <use xlink:href="#ArialMT-69" transform="translate(805.859375 0.78125)"/>
      <use xlink:href="#ArialMT-72" transform="translate(828.076172 0.78125)"/>
      <use xlink:href="#ArialMT-20" transform="translate(861.376953 0.78125)"/>
      <use xlink:href="#ArialMT-47" transform="translate(889.160156 0.78125)"/>
      <use xlink:href="#ArialMT-61" transform="translate(966.943359 0.78125)"/>
      <use xlink:href="#ArialMT-70" transform="translate(1022.558594 0.78125)"/>
      <use xlink:href="#ArialMT-20" transform="translate(1078.173828 0.78125)"/>
      <use xlink:href="#ArialMT-28" transform="translate(1105.957031 0.78125)"/>
      <use xlink:href="#ArialMT-45" transform="translate(1139.257812 0.78125)"/>
      <use xlink:href="#ArialMT-71" transform="translate(1205.957031 0.78125)"/>
      <use xlink:href="#ArialMT-2e" transform="translate(1261.572266 0.78125)"/>
      <use xlink:href="#ArialMT-20" transform="translate(1289.355469 0.78125)"/>
      <use xlink:href="#ArialMT-35" transform="translate(1317.138672 0.78125)"/>
      <use xlink:href="#ArialMT-2c" transform="translate(1372.753906 0.78125)"/>
      <use xlink:href="#ArialMT-20" transform="translate(1400.537109 0.78125)"/>
      <use xlink:href="#DejaVuSans-Oblique-3ba" transform="translate(1428.320312 0.78125)"/>
      <use xlink:href="#DejaVuSans-3d" transform="translate(1506.738281 0.78125)"/>
      <use xlink:href="#DejaVuSans-35" transform="translate(1610.009766 0.78125)"/>
      <use xlink:href="#DejaVuSans-30" transform="translate(1673.632812 0.78125)"/>
      <use xlink:href="#ArialMT-29" transform="translate(1737.255859 0.78125)"/>
     </g>
    </g>
    <g id="PathCollection_2">
     <defs>
      <path id="m42f604a703" d="M -3 3 
L 3 3 
L 3 -3 
L -3 -3 
z
" style="stroke: #000000"/>
     </defs>
     <g>
      <use xlink:href="#m42f604a703" x="194.28476" y="69.67149" style="stroke: #000000"/>
     </g>
    </g>
    <g id="text_15">
     <!-- Simulated ($\kappa = 3$) -->
     <g transform="translate(214.98476 72.69024) scale(0.115 -0.115)">
      <defs>
       <path id="DejaVuSans-33" d="M 2597 2516 
Q 3050 2419 3304 2112 
Q 3559 1806 3559 1356 
Q 3559 666 3084 287 
Q 2609 -91 1734 -91 
Q 1441 -91 1130 -33 
Q 819 25 488 141 
L 488 750 
Q 750 597 1062 519 
Q 1375 441 1716 441 
Q 2309 441 2620 675 
Q 2931 909 2931 1356 
Q 2931 1769 2642 2001 
Q 2353 2234 1838 2234 
L 1294 2234 
L 1294 2753 
L 1863 2753 
Q 2328 2753 2575 2939 
Q 2822 3125 2822 3475 
Q 2822 3834 2567 4026 
Q 2313 4219 1838 4219 
Q 1578 4219 1281 4162 
Q 984 4106 628 3988 
L 628 4550 
Q 988 4650 1302 4700 
Q 1616 4750 1894 4750 
Q 2613 4750 3031 4423 
Q 3450 4097 3450 3541 
Q 3450 3153 3228 2886 
Q 3006 2619 2597 2516 
z
" transform="scale(0.015625)"/>
      </defs>
      <use xlink:href="#ArialMT-53" transform="translate(0 0.78125)"/>
      <use xlink:href="#ArialMT-69" transform="translate(66.699219 0.78125)"/>
      <use xlink:href="#ArialMT-6d" transform="translate(88.916016 0.78125)"/>
      <use xlink:href="#ArialMT-75" transform="translate(172.216797 0.78125)"/>
      <use xlink:href="#ArialMT-6c" transform="translate(227.832031 0.78125)"/>
      <use xlink:href="#ArialMT-61" transform="translate(250.048828 0.78125)"/>
      <use xlink:href="#ArialMT-74" transform="translate(305.664062 0.78125)"/>
      <use xlink:href="#ArialMT-65" transform="translate(333.447266 0.78125)"/>
      <use xlink:href="#ArialMT-64" transform="translate(389.0625 0.78125)"/>
      <use xlink:href="#ArialMT-20" transform="translate(444.677734 0.78125)"/>
      <use xlink:href="#ArialMT-28" transform="translate(472.460938 0.78125)"/>
      <use xlink:href="#DejaVuSans-Oblique-3ba" transform="translate(505.761719 0.78125)"/>
      <use xlink:href="#DejaVuSans-3d" transform="translate(584.179688 0.78125)"/>
      <use xlink:href="#DejaVuSans-33" transform="translate(687.451172 0.78125)"/>
      <use xlink:href="#ArialMT-29" transform="translate(751.074219 0.78125)"/>
     </g>
    </g>
    <g id="line2d_52">
     <path d="M 182.78476 85.57024 
L 194.28476 85.57024 
L 205.78476 85.57024 
" style="fill: none; stroke: #db060b; stroke-width: 2; stroke-linecap: square"/>
    </g>
    <g id="text_16">
     <!-- Model with Air Gap (Eq. 4, $\kappa = 3$) -->
     <g transform="translate(214.98476 89.59524) scale(0.115 -0.115)">
      <use xlink:href="#ArialMT-4d" transform="translate(0 0.78125)"/>
      <use xlink:href="#ArialMT-6f" transform="translate(83.300781 0.78125)"/>
      <use xlink:href="#ArialMT-64" transform="translate(138.916016 0.78125)"/>
      <use xlink:href="#ArialMT-65" transform="translate(194.53125 0.78125)"/>
      <use xlink:href="#ArialMT-6c" transform="translate(250.146484 0.78125)"/>
      <use xlink:href="#ArialMT-20" transform="translate(272.363281 0.78125)"/>
      <use xlink:href="#ArialMT-77" transform="translate(300.146484 0.78125)"/>
      <use xlink:href="#ArialMT-69" transform="translate(372.363281 0.78125)"/>
      <use xlink:href="#ArialMT-74" transform="translate(394.580078 0.78125)"/>
      <use xlink:href="#ArialMT-68" transform="translate(422.363281 0.78125)"/>
      <use xlink:href="#ArialMT-20" transform="translate(477.978516 0.78125)"/>
      <use xlink:href="#ArialMT-41" transform="translate(505.761719 0.78125)"/>
      <use xlink:href="#ArialMT-69" transform="translate(572.460938 0.78125)"/>
      <use xlink:href="#ArialMT-72" transform="translate(594.677734 0.78125)"/>
      <use xlink:href="#ArialMT-20" transform="translate(627.978516 0.78125)"/>
      <use xlink:href="#ArialMT-47" transform="translate(655.761719 0.78125)"/>
      <use xlink:href="#ArialMT-61" transform="translate(733.544922 0.78125)"/>
      <use xlink:href="#ArialMT-70" transform="translate(789.160156 0.78125)"/>
      <use xlink:href="#ArialMT-20" transform="translate(844.775391 0.78125)"/>
      <use xlink:href="#ArialMT-28" transform="translate(872.558594 0.78125)"/>
      <use xlink:href="#ArialMT-45" transform="translate(905.859375 0.78125)"/>
      <use xlink:href="#ArialMT-71" transform="translate(972.558594 0.78125)"/>
      <use xlink:href="#ArialMT-2e" transform="translate(1028.173828 0.78125)"/>
      <use xlink:href="#ArialMT-20" transform="translate(1055.957031 0.78125)"/>
      <use xlink:href="#ArialMT-34" transform="translate(1083.740234 0.78125)"/>
      <use xlink:href="#ArialMT-2c" transform="translate(1139.355469 0.78125)"/>
      <use xlink:href="#ArialMT-20" transform="translate(1167.138672 0.78125)"/>
      <use xlink:href="#DejaVuSans-Oblique-3ba" transform="translate(1194.921875 0.78125)"/>
      <use xlink:href="#DejaVuSans-3d" transform="translate(1273.339844 0.78125)"/>
      <use xlink:href="#DejaVuSans-33" transform="translate(1376.611328 0.78125)"/>
      <use xlink:href="#ArialMT-29" transform="translate(1440.234375 0.78125)"/>
     </g>
    </g>
    <g id="line2d_53">
     <path d="M 182.78476 102.47524 
L 194.28476 102.47524 
L 205.78476 102.47524 
" style="fill: none; stroke-dasharray: 7.4,3.2; stroke-dashoffset: 0; stroke: #db060b; stroke-width: 2"/>
    </g>
    <g id="text_17">
     <!-- Model with Zero Air Gap (Eq. 5, $\kappa = 3$) -->
     <g transform="translate(214.98476 106.50024) scale(0.115 -0.115)">
      <use xlink:href="#ArialMT-4d" transform="translate(0 0.78125)"/>
      <use xlink:href="#ArialMT-6f" transform="translate(83.300781 0.78125)"/>
      <use xlink:href="#ArialMT-64" transform="translate(138.916016 0.78125)"/>
      <use xlink:href="#ArialMT-65" transform="translate(194.53125 0.78125)"/>
      <use xlink:href="#ArialMT-6c" transform="translate(250.146484 0.78125)"/>
      <use xlink:href="#ArialMT-20" transform="translate(272.363281 0.78125)"/>
      <use xlink:href="#ArialMT-77" transform="translate(300.146484 0.78125)"/>
      <use xlink:href="#ArialMT-69" transform="translate(372.363281 0.78125)"/>
      <use xlink:href="#ArialMT-74" transform="translate(394.580078 0.78125)"/>
      <use xlink:href="#ArialMT-68" transform="translate(422.363281 0.78125)"/>
      <use xlink:href="#ArialMT-20" transform="translate(477.978516 0.78125)"/>
      <use xlink:href="#ArialMT-5a" transform="translate(505.761719 0.78125)"/>
      <use xlink:href="#ArialMT-65" transform="translate(566.845703 0.78125)"/>
      <use xlink:href="#ArialMT-72" transform="translate(622.460938 0.78125)"/>
      <use xlink:href="#ArialMT-6f" transform="translate(655.761719 0.78125)"/>
      <use xlink:href="#ArialMT-20" transform="translate(711.376953 0.78125)"/>
      <use xlink:href="#ArialMT-41" transform="translate(739.160156 0.78125)"/>
      <use xlink:href="#ArialMT-69" transform="translate(805.859375 0.78125)"/>
      <use xlink:href="#ArialMT-72" transform="translate(828.076172 0.78125)"/>
      <use xlink:href="#ArialMT-20" transform="translate(861.376953 0.78125)"/>
      <use xlink:href="#ArialMT-47" transform="translate(889.160156 0.78125)"/>
      <use xlink:href="#ArialMT-61" transform="translate(966.943359 0.78125)"/>
      <use xlink:href="#ArialMT-70" transform="translate(1022.558594 0.78125)"/>
      <use xlink:href="#ArialMT-20" transform="translate(1078.173828 0.78125)"/>
      <use xlink:href="#ArialMT-28" transform="translate(1105.957031 0.78125)"/>
      <use xlink:href="#ArialMT-45" transform="translate(1139.257812 0.78125)"/>
      <use xlink:href="#ArialMT-71" transform="translate(1205.957031 0.78125)"/>
      <use xlink:href="#ArialMT-2e" transform="translate(1261.572266 0.78125)"/>
      <use xlink:href="#ArialMT-20" transform="translate(1289.355469 0.78125)"/>
      <use xlink:href="#ArialMT-35" transform="translate(1317.138672 0.78125)"/>
      <use xlink:href="#ArialMT-2c" transform="translate(1372.753906 0.78125)"/>
      <use xlink:href="#ArialMT-20" transform="translate(1400.537109 0.78125)"/>
      <use xlink:href="#DejaVuSans-Oblique-3ba" transform="translate(1428.320312 0.78125)"/>
      <use xlink:href="#DejaVuSans-3d" transform="translate(1506.738281 0.78125)"/>
      <use xlink:href="#DejaVuSans-33" transform="translate(1610.009766 0.78125)"/>
      <use xlink:href="#ArialMT-29" transform="translate(1673.632812 0.78125)"/>
     </g>
    </g>
   </g>
   <g id="PathCollection_3">
    <g clip-path="url(#pdab66dafb4)">
     <use xlink:href="#ma3e9d8b904" x="71.174536" y="13.970786" style="stroke: #000000"/>
     <use xlink:href="#ma3e9d8b904" x="72.539045" y="18.747365" style="stroke: #000000"/>
     <use xlink:href="#ma3e9d8b904" x="74.24468" y="24.227412" style="stroke: #000000"/>
     <use xlink:href="#ma3e9d8b904" x="87.889762" y="56.038395" style="stroke: #000000"/>
     <use xlink:href="#ma3e9d8b904" x="104.946115" y="80.964816" style="stroke: #000000"/>
     <use xlink:href="#ma3e9d8b904" x="122.002467" y="98.559303" style="stroke: #000000"/>
     <use xlink:href="#ma3e9d8b904" x="139.05882" y="112.143687" style="stroke: #000000"/>
     <use xlink:href="#ma3e9d8b904" x="156.115173" y="123.209037" style="stroke: #000000"/>
     <use xlink:href="#ma3e9d8b904" x="173.171526" y="132.550146" style="stroke: #000000"/>
     <use xlink:href="#ma3e9d8b904" x="190.227878" y="140.628974" style="stroke: #000000"/>
     <use xlink:href="#ma3e9d8b904" x="207.284231" y="147.745666" style="stroke: #000000"/>
     <use xlink:href="#ma3e9d8b904" x="224.340584" y="154.104684" style="stroke: #000000"/>
     <use xlink:href="#ma3e9d8b904" x="241.396936" y="159.851563" style="stroke: #000000"/>
     <use xlink:href="#ma3e9d8b904" x="258.453289" y="165.097625" style="stroke: #000000"/>
     <use xlink:href="#ma3e9d8b904" x="275.509642" y="169.922167" style="stroke: #000000"/>
     <use xlink:href="#ma3e9d8b904" x="292.565995" y="174.382428" style="stroke: #000000"/>
     <use xlink:href="#ma3e9d8b904" x="309.622347" y="178.535193" style="stroke: #000000"/>
     <use xlink:href="#ma3e9d8b904" x="326.6787" y="182.416878" style="stroke: #000000"/>
     <use xlink:href="#ma3e9d8b904" x="343.735053" y="186.060248" style="stroke: #000000"/>
     <use xlink:href="#ma3e9d8b904" x="360.791405" y="189.496466" style="stroke: #000000"/>
     <use xlink:href="#ma3e9d8b904" x="377.847758" y="192.745211" style="stroke: #000000"/>
     <use xlink:href="#ma3e9d8b904" x="394.904111" y="195.827378" style="stroke: #000000"/>
     <use xlink:href="#ma3e9d8b904" x="411.960464" y="198.760663" style="stroke: #000000"/>
    </g>
   </g>
   <g id="PathCollection_4">
    <g clip-path="url(#pdab66dafb4)">
     <use xlink:href="#m42f604a703" x="71.174536" y="183.978732" style="stroke: #000000"/>
     <use xlink:href="#m42f604a703" x="74.24468" y="184.654462" style="stroke: #000000"/>
     <use xlink:href="#m42f604a703" x="87.889762" y="187.584504" style="stroke: #000000"/>
     <use xlink:href="#m42f604a703" x="104.946115" y="191.056446" style="stroke: #000000"/>
     <use xlink:href="#m42f604a703" x="122.002467" y="194.337961" style="stroke: #000000"/>
     <use xlink:href="#m42f604a703" x="139.05882" y="197.448679" style="stroke: #000000"/>
     <use xlink:href="#m42f604a703" x="156.115173" y="200.406287" style="stroke: #000000"/>
     <use xlink:href="#m42f604a703" x="173.171526" y="203.224363" style="stroke: #000000"/>
     <use xlink:href="#m42f604a703" x="190.227878" y="205.920554" style="stroke: #000000"/>
     <use xlink:href="#m42f604a703" x="207.284231" y="208.496997" style="stroke: #000000"/>
     <use xlink:href="#m42f604a703" x="224.340584" y="210.9697" style="stroke: #000000"/>
     <use xlink:href="#m42f604a703" x="241.396936" y="213.341316" style="stroke: #000000"/>
     <use xlink:href="#m42f604a703" x="258.453289" y="215.627887" style="stroke: #000000"/>
     <use xlink:href="#m42f604a703" x="275.509642" y="217.827112" style="stroke: #000000"/>
     <use xlink:href="#m42f604a703" x="292.565995" y="219.951824" style="stroke: #000000"/>
     <use xlink:href="#m42f604a703" x="309.622347" y="222.007242" style="stroke: #000000"/>
     <use xlink:href="#m42f604a703" x="326.6787" y="223.986048" style="stroke: #000000"/>
     <use xlink:href="#m42f604a703" x="343.735053" y="225.901683" style="stroke: #000000"/>
     <use xlink:href="#m42f604a703" x="360.791405" y="227.760589" style="stroke: #000000"/>
     <use xlink:href="#m42f604a703" x="377.847758" y="229.568346" style="stroke: #000000"/>
     <use xlink:href="#m42f604a703" x="394.904111" y="231.319567" style="stroke: #000000"/>
     <use xlink:href="#m42f604a703" x="411.960464" y="233.024284" style="stroke: #000000"/>
    </g>
   </g>
  </g>
 </g>
 <defs>
  <clipPath id="pdab66dafb4">
   <rect x="54.13524" y="3.00024" width="374.86452" height="241.35202"/>
  </clipPath>
 </defs>
</svg>
